<?xml version="1.0" encoding="UTF-8" standalone="no"?>
<!-- Created with Inkscape (http://www.inkscape.org/) -->

<svg
   xmlns:dc="http://purl.org/dc/elements/1.1/"
   xmlns:cc="http://creativecommons.org/ns#"
   xmlns:rdf="http://www.w3.org/1999/02/22-rdf-syntax-ns#"
   xmlns:svg="http://www.w3.org/2000/svg"
   xmlns="http://www.w3.org/2000/svg"
   xmlns:sodipodi="http://sodipodi.sourceforge.net/DTD/sodipodi-0.dtd"
   xmlns:inkscape="http://www.inkscape.org/namespaces/inkscape"
   width="100%"
   height="100%"
   viewBox="0 0 107.82766 76.616792"
   version="1.1"
   id="svg18"
   inkscape:version="0.92.4 (5da689c313, 2019-01-14)"
   sodipodi:docname="paper.svg">
  <defs
     id="defs12">
    <filter
       inkscape:collect="always"
       style="color-interpolation-filters:sRGB"
       id="filter5185"
       x="-0.034694124"
       width="1.0693883"
       y="-0.037408024"
       height="1.0748161">
      <feGaussianBlur
         inkscape:collect="always"
         stdDeviation="0.073221505"
         id="feGaussianBlur5187" />
    </filter>
    <filter
       inkscape:collect="always"
       style="color-interpolation-filters:sRGB"
       id="filter5227"
       x="-0.10252021"
       width="1.2050405"
       y="-0.042410333"
       height="1.0848207">
      <feGaussianBlur
         inkscape:collect="always"
         stdDeviation="0.099465556"
         id="feGaussianBlur5229" />
    </filter>
    <filter
       inkscape:collect="always"
       style="color-interpolation-filters:sRGB"
       id="filter5261"
       x="-0.036463637"
       width="1.0729274"
       y="-0.070214443"
       height="1.1404289">
      <feGaussianBlur
         inkscape:collect="always"
         stdDeviation="0.14721305"
         id="feGaussianBlur5263" />
    </filter>
  </defs>
  <sodipodi:namedview
     id="base"
     pagecolor="#ffffff"
     bordercolor="#666666"
     borderopacity="1.0"
     inkscape:pageopacity="0.0"
     inkscape:pageshadow="2"
     inkscape:zoom="3.2739477"
     inkscape:cx="102.8093"
     inkscape:cy="23.850939"
     inkscape:document-units="mm"
     inkscape:current-layer="layer2"
     showgrid="false"
     units="mm"
     height="793.70079px"
     showguides="true"
     inkscape:window-width="1920"
     inkscape:window-height="991"
     inkscape:window-x="-9"
     inkscape:window-y="-9"
     inkscape:window-maximized="1"
     inkscape:lockguides="true"
     fit-margin-top="0"
     fit-margin-left="0"
     fit-margin-right="0"
     fit-margin-bottom="0" />
  <metadata
     id="metadata15">
    <rdf:RDF>
      <cc:Work
         rdf:about="">
        <dc:format>image/svg+xml</dc:format>
        <dc:type
           rdf:resource="http://purl.org/dc/dcmitype/StillImage" />
        <dc:title></dc:title>
      </cc:Work>
    </rdf:RDF>
  </metadata>
  <g
     inkscape:label="Layer 1"
     inkscape:groupmode="layer"
     id="layer1"
     transform="translate(0.01464898,-121.53112)" />
  <g
     inkscape:groupmode="layer"
     id="layer2"
     inkscape:label="Layer 2"
     transform="translate(0.01464898,-0.4789319)">
    <path
       style="opacity:0.88999999;fill:#c8c4b7;stroke:#000000;stroke-width:0.40000001;stroke-linejoin:round;stroke-miterlimit:4;stroke-dasharray:none;stroke-opacity:1"
       d="m 8.0594958,0.68352741 17.6527002,0.0120582 0.54283,1.61085979 0.65713,-1.61004012 40.302057,0.0275295 0.72782,1.69438272 0.75437,-1.69438272 33.022537,-0.0118351 c 3.03113,0.13132039 4.82865,1.44762702 5.11445,4.64026182 l 0.0286,34.1153705 0.75104,0.744031 -1.59949,0.710532 0.82825,0.798837 -0.22224,23.787369 c -0.1465,6.579178 -4.51274,10.694695 -10.069217,10.556154 l -42.950452,-0.0069 -0.529817,0.837998 -0.561367,-1.592663 -0.640084,0.781802 -45.9835572,0.282254 c -2.876,-0.410052 -4.67231,-3.318815 -4.85641,-5.75342 V 41.010638 L 0.18533577,40.159669 1.9429558,39.43916 1.0572158,38.381982 1.0286158,7.3218657 c 0,-3.9525388 3.48834,-6.5891764 7.03088,-6.63833829 z"
       id="rect4982"
       inkscape:connector-curvature="0"
       sodipodi:nodetypes="ccccccccccccccccccccccccccc" />
    <path
       style="fill:#aca793;stroke:#000000;stroke-width:0.26458332px;stroke-linecap:butt;stroke-linejoin:miter;stroke-opacity:1"
       d="m 1.0256358,7.3809974 c 0.86331,-2.9974066 3.02925,-2.7925362 5.94304,-3.4286803 -0.83643,-1.632471 -0.24425,-2.4649166 1.09082,-3.26878969 -3.9161,0.0895649 -6.97503,2.49348879 -7.03386,6.69746999 z"
       id="path4985"
       inkscape:connector-curvature="0"
       sodipodi:nodetypes="cccc" />
    <path
       style="fill:#e3e2db;stroke:#000000;stroke-width:0.26458332px;stroke-linecap:butt;stroke-linejoin:round;stroke-opacity:1"
       d="m 106.83339,5.3523615 c -1.42838,-2.2357465 -2.55206,-2.1362931 -4.26223,-2.1590677 -1.07444,-1.2963115 -0.24233,-1.9220141 -0.65664,-2.49822292 2.89225,-0.003254 4.75412,1.95324992 4.91887,4.65729062 z"
       id="path4987"
       inkscape:connector-curvature="0"
       sodipodi:nodetypes="cccc" />
    <path
       style="fill:#e3e2db;stroke:#000000;stroke-width:0.26458332px;stroke-linecap:butt;stroke-linejoin:round;stroke-opacity:1"
       d="m 106.62897,65.497128 c -5.54954,7.169339 -8.800267,4.33347 -9.686007,5.000158 0.97146,0.933364 1.77761,3.165333 0.17143,5.628752 5.798557,-0.343112 9.566437,-5.006624 9.514577,-10.62891 z"
       id="path4989"
       inkscape:connector-curvature="0"
       sodipodi:nodetypes="cccc" />
    <path
       style="fill:#918a6f;stroke:#000000;stroke-width:0.26458332px;stroke-linecap:butt;stroke-linejoin:miter;stroke-opacity:1"
       d="m 1.0286458,70.613693 c 1.20856,1.294574 3.10285,2.017701 5.51145,2.169382 -1.76125,1.499451 -1.17958,2.084587 -0.65504,3.584038 -3.16171,-0.603479 -4.78051,-3.264167 -4.85641,-5.75342 z"
       id="path4991"
       inkscape:connector-curvature="0"
       sodipodi:nodetypes="cccc" />
    <path
       style="opacity:0.253;fill:#000000;stroke:none;stroke-width:0.26458332px;stroke-linecap:butt;stroke-linejoin:round;stroke-opacity:1;filter:url(#filter5185)"
       d="m 101.97513,0.6546635 c -0.53784,1.3334381 0.0557,3.0507465 0.83114,4.3437773 1.5426,-1.0065834 3.16175,-0.5614052 4.02711,0.3539208 -0.49814,-0.7935685 -0.87481,-1.5873769 -1.85965,-1.8336369 -0.82106,-0.3913287 -1.62192,-0.3583798 -2.40257,-0.3254309 -0.8164,-0.8343408 -0.68446,-1.4308416 -0.59603,-2.5386303 z"
       id="path5155"
       inkscape:connector-curvature="0"
       sodipodi:nodetypes="cccccc" />
    <path
       style="opacity:0.25;fill:#000000;stroke:none;stroke-width:0.26499999;stroke-linecap:butt;stroke-linejoin:round;stroke-miterlimit:4;stroke-dasharray:none;stroke-opacity:1;filter:url(#filter5227)"
       d="m 97.114393,76.126038 c -0.84516,-0.207324 -1.27438,-1.231698 -1.40004,-2.514367 -0.0476,-1.609576 0.50478,-2.447698 1.22862,-3.114387 1.78146,1.876251 1.05914,4.295377 0.17142,5.628754 z"
       id="path5189"
       inkscape:connector-curvature="0"
       sodipodi:nodetypes="cccc" />
    <path
       style="opacity:0.25;fill:#000000;stroke:none;stroke-width:0.26458332px;stroke-linecap:butt;stroke-linejoin:round;stroke-opacity:1;filter:url(#filter5261)"
       d="m 106.62897,65.497128 c -2.66296,3.283014 -4.47737,5.313399 -9.685997,5.000156 0,0 -0.13142,-0.51177 1.23613,-0.707087 1.05038,-0.150019 1.68323,0.141651 3.354337,-0.483405 1.67636,-0.62702 5.09553,-3.809664 5.09553,-3.809664"
       id="path5231"
       inkscape:connector-curvature="0"
       sodipodi:nodetypes="ccssc" />
  </g>
</svg>
