<?xml version="1.0" encoding="UTF-8" standalone="no"?>
<!-- Created with Inkscape (http://www.inkscape.org/) -->

<svg
   xmlns:dc="http://purl.org/dc/elements/1.1/"
   xmlns:cc="http://creativecommons.org/ns#"
   xmlns:rdf="http://www.w3.org/1999/02/22-rdf-syntax-ns#"
   xmlns:svg="http://www.w3.org/2000/svg"
   xmlns="http://www.w3.org/2000/svg"
   xmlns:xlink="http://www.w3.org/1999/xlink"
   xmlns:sodipodi="http://sodipodi.sourceforge.net/DTD/sodipodi-0.dtd"
   xmlns:inkscape="http://www.inkscape.org/namespaces/inkscape"
   width="100%"
   height="100%"
   viewBox="0 0 175.94791 175.948"
   version="1.1"
   id="svg18"
   inkscape:version="0.92.4 (5da689c313, 2019-01-14)"
   sodipodi:docname="right.svg">
  <defs
     id="defs12">
    <linearGradient
       inkscape:collect="always"
       id="linearGradient3265">
      <stop
         style="stop-color:#aa4400;stop-opacity:1"
         offset="0"
         id="stop3261" />
      <stop
         id="stop3269"
         offset="0.54814988"
         style="stop-color:#aa4400;stop-opacity:1" />
      <stop
         style="stop-color:#552200;stop-opacity:1"
         offset="1"
         id="stop3263" />
    </linearGradient>
    <linearGradient
       id="linearGradient3251"
       inkscape:collect="always">
      <stop
         style="stop-color:#ae4cc2;stop-opacity:0.81094527"
         offset="0"
         id="stop3249" />
      <stop
         style="stop-color:#800080;stop-opacity:1;"
         offset="1"
         id="stop3247" />
    </linearGradient>
    <linearGradient
       inkscape:collect="always"
       id="linearGradient3183">
      <stop
         style="stop-color:#800080;stop-opacity:1;"
         offset="0"
         id="stop3179" />
      <stop
         style="stop-color:#ae4cc2;stop-opacity:0.81094527"
         offset="1"
         id="stop3181" />
    </linearGradient>
    <filter
       inkscape:collect="always"
       style="color-interpolation-filters:sRGB"
       id="filter5185"
       x="-0.034694124"
       width="1.0693883"
       y="-0.037408024"
       height="1.0748161">
      <feGaussianBlur
         inkscape:collect="always"
         stdDeviation="0.073221505"
         id="feGaussianBlur5187" />
    </filter>
    <filter
       inkscape:collect="always"
       style="color-interpolation-filters:sRGB"
       id="filter5227"
       x="-0.10252021"
       width="1.2050405"
       y="-0.042410333"
       height="1.0848207">
      <feGaussianBlur
         inkscape:collect="always"
         stdDeviation="0.099465556"
         id="feGaussianBlur5229" />
    </filter>
    <filter
       inkscape:collect="always"
       style="color-interpolation-filters:sRGB"
       id="filter5261"
       x="-0.036463637"
       width="1.0729274"
       y="-0.070214443"
       height="1.1404289">
      <feGaussianBlur
         inkscape:collect="always"
         stdDeviation="0.14721305"
         id="feGaussianBlur5263" />
    </filter>
    <linearGradient
       inkscape:collect="always"
       xlink:href="#linearGradient3183"
       id="linearGradient3189"
       gradientUnits="userSpaceOnUse"
       x1="31.776476"
       y1="128.61641"
       x2="-0.8164193"
       y2="135.19836"
       spreadMethod="reflect"
       gradientTransform="translate(5.4666667e-7,-0.14544731)" />
    <linearGradient
       inkscape:collect="always"
       xlink:href="#linearGradient3251"
       id="linearGradient3245"
       x1="175.90146"
       y1="130.03374"
       x2="140.2394"
       y2="137.79196"
       gradientUnits="userSpaceOnUse"
       spreadMethod="reflect" />
    <linearGradient
       inkscape:collect="always"
       xlink:href="#linearGradient3265"
       id="linearGradient3267"
       x1="11.12521"
       y1="121.65168"
       x2="11.129869"
       y2="125.14395"
       gradientUnits="userSpaceOnUse"
       gradientTransform="matrix(0.9224873,0,0,1.0021665,5.9941992,-0.26726884)" />
  </defs>
  <sodipodi:namedview
     id="base"
     pagecolor="#ffffff"
     bordercolor="#666666"
     borderopacity="1.0"
     inkscape:pageopacity="0.0"
     inkscape:pageshadow="2"
     inkscape:zoom="4.6300612"
     inkscape:cx="649.0255"
     inkscape:cy="630.10424"
     inkscape:document-units="mm"
     inkscape:current-layer="layer1"
     showgrid="false"
     units="px"
     height="793.70079px"
     showguides="true"
     inkscape:window-width="1920"
     inkscape:window-height="991"
     inkscape:window-x="-9"
     inkscape:window-y="-9"
     inkscape:window-maximized="1"
     inkscape:lockguides="true" />
  <metadata
     id="metadata15">
    <rdf:RDF>
      <cc:Work
         rdf:about="">
        <dc:format>image/svg+xml</dc:format>
        <dc:type
           rdf:resource="http://purl.org/dc/dcmitype/StillImage" />
        <dc:title></dc:title>
      </cc:Work>
    </rdf:RDF>
  </metadata>
  <g
     inkscape:label="Layer 1"
     inkscape:groupmode="layer"
     id="layer1"
     transform="translate(0,-121.05219)">
    <rect
       id="rect24"
       width="36.544552"
       height="7"
       x="0"
       y="120.73328"
       style="stroke-width:0.05917414" />
    <rect
       style="fill:#000000;fill-opacity:0.81094528;stroke:#000000;stroke-width:0.24632721;stroke-opacity:1"
       id="rect3255"
       width="30.023848"
       height="6.7536726"
       x="145.99088"
       y="121.13474" />
    <rect
       style="opacity:1;fill:url(#linearGradient3267);fill-opacity:1;stroke:#000000;stroke-width:0.36244938;stroke-opacity:1"
       id="rect3259"
       width="175.43805"
       height="3.7243662"
       x="0.4582184"
       y="121.50383" />
    <path
       style="fill:url(#linearGradient3245);fill-opacity:1;stroke:#ffd42a;stroke-width:0.19979355;stroke-miterlimit:4;stroke-dasharray:none"
       d="m 146,121.14104 h 3.32884 v 5.78706 h 3.24621 v -5.78706 h 3.41144 v 5.78706 h 3.18492 v -5.78706 h 3.47277 v 5.78706 h 3.16647 v -5.78706 h 3.49119 v 5.78706 h 2.99587 v -5.78706 h 3.66182 V 297.00012 H 146 Z"
       id="rect1097"
       inkscape:connector-curvature="0"
       sodipodi:nodetypes="ccccccccccccccccccccc" />
    <path
       style="fill:url(#linearGradient3189);fill-opacity:1;stroke:#ffcc00;stroke-width:0.19016272;stroke-miterlimit:4;stroke-dasharray:none;stroke-opacity:1"
       d="M 5.4666667e-7,121.05219 H 4.0605063 l 0.1517459,5.72174 h 3.9986072 l -0.089847,-5.72174 h 4.0605056 l 0.02795,5.72174 h 3.998607 l 0.03395,-5.72174 h 4.060506 l -0.09585,5.72174 h 3.998607 l 0.157747,-5.72174 h 4.060505 l -0.13883,5.72174 h 3.998607 l 0.200729,-5.72174 h 4.060506 l -2e-6,175.80248 H 0.32325964 Z"
       id="rect1095"
       inkscape:connector-curvature="0"
       sodipodi:nodetypes="ccccccccccccccccccccc" />
  </g>
  <g
     inkscape:groupmode="layer"
     id="layer2"
     inkscape:label="Layer 2">
    <path
       style="opacity:0.88999999;fill:#333333;stroke:#000000;stroke-width:0.41036966;stroke-linejoin:round;stroke-miterlimit:4;stroke-dasharray:none;stroke-opacity:1"
       d="m 42.408083,77.907397 c -1.19052,0.643223 -2.19531,1.100726 -2.28579,2.829698 l -0.0423,92.088645 c 0.1411,1.49531 1.27827,2.80773 2.84657,2.91254 -1.31046,0.0629 -3.02135,-0.76565 -3.3326,-1.00488 -0.31125,-0.23922 -0.98714,-0.59665 -1.14945,-1.72466 l -0.0542,-91.543049 c 0,0 0.0376,-1.399147 0.98521,-2.229681 0.94766,-0.830533 1.73324,-1.110453 3.03256,-1.328613 z"
       id="rect4977"
       inkscape:connector-curvature="0"
       sodipodi:nodetypes="cccczcczcc" />
    <rect
       style="opacity:0.88999999;fill:#808080;stroke:#000000;stroke-width:0.40040696;stroke-linejoin:round;stroke-miterlimit:4;stroke-dasharray:none;stroke-opacity:1"
       id="rect4979"
       width="104.56432"
       height="97.888596"
       x="40.093933"
       y="77.859116"
       ry="3.2001016"
       rx="2.9715228" />
    <path
       style="opacity:0.88999999;fill:#c8c4b7;stroke:#000000;stroke-width:0.40000001;stroke-linejoin:round;stroke-miterlimit:4;stroke-dasharray:none;stroke-opacity:1"
       d="m 45.855973,0.25156767 17.6527,0.0120582 0.54283,1.61085983 0.65713,-1.61004016 40.302057,0.0275295 0.72782,1.69438276 0.75437,-1.69438276 33.02254,-0.0118351 c 3.03113,0.13132039 4.82865,1.44762706 5.11445,4.64026186 l 0.0286,34.1153702 0.75104,0.744031 -1.59949,0.710532 0.82825,0.798837 -0.22224,23.787369 c -0.1465,6.579178 -4.51274,10.694695 -10.06922,10.556154 l -42.950452,-0.0069 -0.529817,0.837998 -0.561367,-1.592663 -0.640084,0.781802 -45.983557,0.282254 c -2.876,-0.410052 -4.67231,-3.318815 -4.85641,-5.75342 V 40.578678 l -0.84331,-0.850969 1.75762,-0.720509 -0.88574,-1.057178 -0.0286,-31.060116 c 0,-3.9525388 3.48834,-6.58917644 7.03088,-6.63833833 z"
       id="rect4982"
       inkscape:connector-curvature="0"
       sodipodi:nodetypes="ccccccccccccccccccccccccccc" />
    <path
       style="fill:#aca793;stroke:#000000;stroke-width:0.26458332px;stroke-linecap:butt;stroke-linejoin:miter;stroke-opacity:1"
       d="m 38.822113,6.9490377 c 0.86331,-2.9974066 3.02925,-2.7925362 5.94304,-3.4286803 -0.83643,-1.632471 -0.24425,-2.4649166 1.09082,-3.26878973 -3.9161,0.0895649 -6.97503,2.49348883 -7.03386,6.69747003 z"
       id="path4985"
       inkscape:connector-curvature="0"
       sodipodi:nodetypes="cccc" />
    <path
       style="fill:#e3e2db;stroke:#000000;stroke-width:0.26458332px;stroke-linecap:butt;stroke-linejoin:round;stroke-opacity:1"
       d="M 144.62987,4.9204018 C 143.20149,2.6846553 142.07781,2.7841087 140.36764,2.7613341 139.2932,1.4650226 140.12531,0.83931994 139.711,0.26311114 c 2.89225,-0.003254 4.75412,1.95324996 4.91887,4.65729066 z"
       id="path4987"
       inkscape:connector-curvature="0"
       sodipodi:nodetypes="cccc" />
    <path
       style="fill:#e3e2db;stroke:#000000;stroke-width:0.26458332px;stroke-linecap:butt;stroke-linejoin:round;stroke-opacity:1"
       d="m 144.42545,65.065168 c -5.54954,7.169339 -8.80027,4.33347 -9.68601,5.000158 0.97146,0.933364 1.77761,3.165333 0.17143,5.628752 5.79856,-0.343112 9.56644,-5.006624 9.51458,-10.62891 z"
       id="path4989"
       inkscape:connector-curvature="0"
       sodipodi:nodetypes="cccc" />
    <path
       style="fill:#918a6f;stroke:#000000;stroke-width:0.26458332px;stroke-linecap:butt;stroke-linejoin:miter;stroke-opacity:1"
       d="m 38.825123,70.181733 c 1.20856,1.294574 3.10285,2.017701 5.51145,2.169382 -1.76125,1.499451 -1.17958,2.084587 -0.65504,3.584038 -3.16171,-0.603479 -4.78051,-3.264167 -4.85641,-5.75342 z"
       id="path4991"
       inkscape:connector-curvature="0"
       sodipodi:nodetypes="cccc" />
    <path
       style="opacity:0.253;fill:#000000;stroke:none;stroke-width:0.26458332px;stroke-linecap:butt;stroke-linejoin:round;stroke-opacity:1;filter:url(#filter5185)"
       d="m 139.77161,0.22270376 c -0.53784,1.33343814 0.0557,3.05074654 0.83114,4.34377734 1.5426,-1.0065834 3.16175,-0.5614052 4.02711,0.3539208 -0.49814,-0.7935685 -0.87481,-1.5873769 -1.85965,-1.8336369 -0.82106,-0.3913287 -1.62192,-0.3583798 -2.40257,-0.3254309 -0.8164,-0.8343408 -0.68446,-1.4308416 -0.59603,-2.53863034 z"
       id="path5155"
       inkscape:connector-curvature="0"
       sodipodi:nodetypes="cccccc" />
    <path
       style="opacity:0.25;fill:#000000;stroke:none;stroke-width:0.26499999;stroke-linecap:butt;stroke-linejoin:round;stroke-miterlimit:4;stroke-dasharray:none;stroke-opacity:1;filter:url(#filter5227)"
       d="m 134.91087,75.694078 c -0.84516,-0.207324 -1.27438,-1.231698 -1.40004,-2.514367 -0.0476,-1.609576 0.50478,-2.447698 1.22862,-3.114387 1.78146,1.876251 1.05914,4.295377 0.17142,5.628754 z"
       id="path5189"
       inkscape:connector-curvature="0"
       sodipodi:nodetypes="cccc" />
    <path
       style="opacity:0.25;fill:#000000;stroke:none;stroke-width:0.26458332px;stroke-linecap:butt;stroke-linejoin:round;stroke-opacity:1;filter:url(#filter5261)"
       d="m 144.42545,65.065168 c -2.66296,3.283014 -4.47737,5.313399 -9.686,5.000156 0,0 -0.13142,-0.51177 1.23613,-0.707087 1.05038,-0.150019 1.68323,0.141651 3.35434,-0.483405 1.67636,-0.62702 5.09553,-3.809664 5.09553,-3.809664"
       id="path5231"
       inkscape:connector-curvature="0"
       sodipodi:nodetypes="ccssc" />
  </g>
</svg>
