
<svg
   
   xmlns="http://www.w3.org/2000/svg"
   id="svg8"
   version="1.1"
   viewBox="0 0 210 297"
   height="100%"
   width="100%">
  
  <g
     id="layer1">
    <circle
       style="stroke-width:0.25913602"
       r="12.586607"
       cy="75.127968"
       cx="43.089287"
       id="path3715" />
    <path
       id="path3717"
       d="m 32.902922,87.288065 c 8.647597,7.319114 18.501838,1.825029 18.501838,1.825029 0,0 9.685121,-7.468759 16.646688,-11.595428 6.961567,-4.12667 25.308669,-12.595047 25.308669,-12.595047 0,0 -25.756103,21.220391 -31.093626,28.89062 -5.221814,7.503951 -11.260649,21.597681 -11.62555,34.128561 -0.364901,12.53088 -0.352544,27.16427 2.783402,41.72608 3.585361,16.64867 13.888525,52.27142 14.01198,52.27142 0,0 -14.117267,-30.23273 -17.543466,-40.18405 -3.426199,-9.95133 -9.735668,-26.80945 -9.735668,-26.80945 0,0 -5.180904,13.59759 -8.628602,24.7394 -3.447698,11.14181 -12.267536,41.86826 -12.267536,41.86826 0,0 5.800917,-29.84822 6.559903,-45.15473 0.758987,-15.30651 4.81709,-32.85212 5.005404,-44.74988 0.188313,-11.89776 -2.100168,-26.28278 -2.100168,-26.28278 0,0 -4.849428,8.75114 -9.242011,23.77839 -4.392582,15.02725 -6.422702,34.72407 -6.422702,34.72407 0,0 0.408171,-30.97555 2.233127,-42.52327 1.824957,-11.54772 4.32339,-20.54497 7.292255,-24.794476 3.394188,-4.858292 10.316063,-9.262719 10.316063,-9.262719 z"
       style="fill:#000000;stroke:#000000;stroke-width:0.26458332px;stroke-linecap:butt;stroke-linejoin:miter;stroke-opacity:1" />
    <path
       id="path3719"
       d="m 93.360117,64.922619 c 0,0 15.944053,10.858053 22.367593,13.985447 6.42354,3.127393 13.89801,5.07812 13.89801,5.07812 0,0 4.0295,2.959613 6.94624,4.121162 2.91674,1.161549 8.44064,1.005317 10.6582,-0.06632 2.21755,-1.07164 5.64801,-2.985762 5.64801,-2.985762 0,0 10.5025,-4.531426 18.17432,-9.087165 7.67183,-4.555739 27.2615,-18.976135 27.2615,-18.976135 0,0 -15.37504,14.638108 -22.18337,21.916101 -6.80833,7.277993 -14.68128,13.174656 -18.70887,21.648825 -4.02759,8.47417 -4.50141,18.39796 -4.81085,27.2615 -0.30944,8.86354 0.13609,9.92996 2.67269,25.3906 2.5366,15.46064 14.9671,66.81738 14.9671,66.81738 l -28.0633,-64.94649 -24.5888,65.48103 c 0,0 9.06237,-55.7017 11.22532,-71.36096 2.16295,-15.65926 3.13401,-13.94051 2.6727,-22.45064 -0.46131,-8.51013 -0.54378,-16.75109 -6.41447,-27.796031 -5.87069,-11.044945 -31.722023,-34.03066 -31.722023,-34.03066 z"
       style="fill:#000000;stroke:#000000;stroke-width:0.26458332px;stroke-linecap:butt;stroke-linejoin:miter;stroke-opacity:1" />
    <circle
       style="stroke-width:0.25913602"
       r="12.586608"
       cy="73.028137"
       cx="141.65285"
       id="path3715-7" />
    <text
       transform="matrix(0.93250628,0.24835641,-0.21775761,1.014383,0,0)"
       id="text3738"
       y="97.603447"
       x="60.391994"
       style="font-style:normal;font-weight:normal;font-size:21.4730835px;line-height:1.25;font-family:sans-serif;letter-spacing:0px;word-spacing:0px;fill:#ffffff;fill-opacity:1;stroke:none;stroke-width:0.53682709"
       xml:space="preserve"><tspan
         style="fill:#ffffff;stroke-width:0.53682709"
         y="97.603447"
         x="60.391994"
         id="tspan3736">X</tspan></text>
    <text
       transform="matrix(0.94239531,0.07132527,-0.0287215,1.058952,0,0)"
       id="text3742"
       y="98.435966"
       x="143.74713"
       style="font-style:normal;font-weight:normal;font-size:24.73922539px;line-height:1.25;font-family:sans-serif;letter-spacing:0px;word-spacing:0px;fill:#ffffff;fill-opacity:1;stroke:none;stroke-width:0.61848068"
       xml:space="preserve"><tspan
         style="fill:#ffffff;stroke-width:0.61848068"
         y="98.435966"
         x="143.74713"
         id="tspan3740">O</tspan></text>
  </g>
</svg>
